<?xml version="1.0" standalone="no"?>
<!DOCTYPE svg PUBLIC "-//W3C//DTD SVG 20010904//EN"
 "http://www.w3.org/TR/2001/REC-SVG-20010904/DTD/svg10.dtd">
<svg version="1.0" xmlns="http://www.w3.org/2000/svg"
 width="190.000000pt" height="190.000000pt" viewBox="0 0 190.000000 190.000000"
 preserveAspectRatio="xMidYMid meet">
<metadata>
Created by potrace 1.14, written by Peter Selinger 2001-2017
</metadata>
<g transform="translate(0.000000,190.000000) scale(0.100000,-0.100000)"
fill="#000000" stroke="none">
<path d="M759 1586 c-2 -2 -85 -7 -184 -10 -275 -11 -416 -47 -423 -110 -2
-16 1 -33 7 -39 6 -6 58 -9 128 -9 93 2 122 -1 138 -13 22 -17 21 16 16 -440
-1 -116 3 -295 9 -400 l10 -190 -22 -19 c-21 -17 -35 -18 -134 -13 -98 5 -114
4 -143 -14 -45 -27 -41 -67 9 -91 31 -15 86 -17 510 -19 261 -1 493 2 515 6
154 27 283 89 391 188 61 56 131 155 139 197 2 12 11 35 20 53 20 38 43 121
44 157 3 88 1 215 -4 231 -4 10 -12 19 -20 19 -7 0 -16 7 -19 16 -3 8 -2 13 2
10 19 -12 9 71 -14 112 -13 23 -24 48 -24 53 0 12 -26 43 -77 91 -18 17 -33
36 -33 42 0 13 -72 62 -145 98 -119 60 -331 97 -556 98 -75 0 -138 -2 -140 -4z
m552 -171 c69 -36 131 -126 170 -248 26 -81 43 -236 35 -321 -9 -99 -35 -219
-50 -231 -7 -5 -11 -16 -8 -23 5 -17 -69 -141 -102 -169 -82 -71 -165 -69
-167 5 -7 286 -4 972 4 990 10 21 16 23 50 18 22 -4 52 -13 68 -21z m296 -71
c-3 -4 0 -13 8 -21 8 -8 15 -22 14 -31 0 -13 -2 -12 -9 4 -11 29 -29 39 -43
25 -6 -6 -16 -11 -21 -11 -14 1 33 40 47 40 6 0 8 -3 4 -6z m-70 -30 c-3 -3
-12 -4 -19 -1 -8 3 -5 6 6 6 11 1 17 -2 13 -5z m28 -24 c3 -5 1 -10 -4 -10 -6
0 -11 5 -11 10 0 6 2 10 4 10 3 0 8 -4 11 -10z m37 -12 c-7 -7 -12 -8 -12 -2
0 6 3 14 7 17 3 4 9 5 12 2 2 -3 -1 -11 -7 -17z m86 -35 c-4 -20 -21 -18 -29
5 -6 16 -4 19 12 15 11 -3 19 -12 17 -20z m-83 -3 c3 -5 -1 -10 -9 -10 -9 0
-16 5 -16 10 0 6 4 10 9 10 6 0 13 -4 16 -10z m125 -580 c0 -5 -4 -10 -10 -10
-5 0 -10 5 -10 10 0 6 5 10 10 10 6 0 10 -4 10 -10z m-20 -30 c0 -5 -4 -10
-10 -10 -5 0 -10 5 -10 10 0 6 5 10 10 10 6 0 10 -4 10 -10z"/>
</g>
</svg>
